# xmcd
#
# Track frame offsets:
#	150
#	23500
#	43250
#	63183
#	80680
#	98855
#	117745
#	137640
#	159548
#	177550
#	203898
#	224713
#
# Disc length: 3137 seconds
#
# Revision: 4
# Processed by: cddbd v1.5.2PL0 Copyright (c) Steve Scherf et al.
# Submitted via: EasyCDDAExtractor 15.3.0.1
#
DISCID=b30c3f0c
DTITLE=Eros Ramazzotti - En Todos Los Sentidos
DYEAR=1990
DGENRE=Latin
TTITLE0=Si Bastasen Un Par De Canciones
TTITLE1=Una Calle Al Cielo
TTITLE2=Amor En Contra
TTITLE3=Toma La Luna
TTITLE4=Taxi Story
TTITLE5=Un Atardecer Violento
TTITLE6=Amarte Es Total (Con Antonella Bucci)
TTITLE7=Canciones Lejanas
TTITLE8=Querida Profe
TTITLE9=Cantico
TTITLE10=Dime Que Dia Es
TTITLE11=Soñar Es Gratis (Con Piero Cassano)
EXTD=
EXTT0=
EXTT1=
EXTT2=
EXTT3=
EXTT4=
EXTT5=
EXTT6=
EXTT7=
EXTT8=
EXTT9=
EXTT10=
EXTT11=
PLAYORDER=
